#!OML:ASF H:\Male1\Project 1\Capture day 1\Session 1\Male1.ASF
:FULLY-SPECIFIED
:DEGREES
366
root 45.8981 15.3135 1.54512 705.971 106.752 705.69
lowerback 2.75965 0.302369 -2.50601
upperback 5.17843 0.591626 -1.18433
thorax 3.77858 0.294397 0.190138
lowerneck -10.7259 5.41006 8.90846
upperneck 16.0724 7.28449 -7.23587
head 7.2829 3.49234 -3.10139
rclavicle 3.3048e-014 1.40143e-014
rhumerus -36.2468 5.94592 -88.4066
rradius 36.1477
rwrist -18.9886
rhand -17.5155 -0.995008
rfingers 7.12502
rthumb 8.73787 -30.7941
lclavicle 3.3048e-014 1.40143e-014
lhumerus -35.2007 -3.80607 85.1145
lradius 27.8399
lwrist -2.37431
lhand -18.363 12.5725
lfingers 7.12502
lthumb 7.91997 42.4041
rfemur -10.7188 14.4298 21.6115
rtibia 32.9453
rfoot -31.4466 -25.0382
rtoes -14.6907
lfemur -11.5197 -10.9359 -25.7855
ltibia 34.3415
lfoot -22.2628 16.2846
ltoes -12.6252
367
root 45.9025 15.3146 1.56724 707.928 107.961 707.62
lowerback 2.88285 0.285154 -2.26174
upperback 5.1494 0.561117 -1.07362
thorax 3.67926 0.286951 0.166544
lowerneck -10.2305 6.00171 9.9438
upperneck 15.8749 8.12732 -8.1379
head 7.28726 3.89715 -3.48468
rclavicle -1.86112e-014 -8.94531e-016
rhumerus -36.3204 6.00084 -88.507
rradius 36.0002
rwrist -18.8833
rhand -17.5808 -0.497485
rfingers 7.12502
rthumb 8.67487 -30.2992
lclavicle -1.86112e-014 -8.94531e-016
lhumerus -34.974 -3.06954 84.8571
lradius 28.2368
lwrist -2.44763
lhand -18.4106 12.4249
lfingers 7.12502
lthumb 7.87403 42.2582
rfemur -10.494 14.4527 22.1158
rtibia 32.6403
rfoot -32.08 -26.0224
rtoes -13.7179
lfemur -11.891 -9.54044 -25.5192
ltibia 34.8591
lfoot -23.1948 17.424
ltoes -11.0155
368
root 45.9094 15.3198 1.58889 709.523 109.203 709.208
lowerback 2.98192 0.295583 -2.06598
upperback 5.13133 0.570937 -0.988308
thorax 3.60441 0.298379 0.144218
lowerneck -9.41926 6.81287 11.5731
upperneck 15.5374 9.29287 -9.46776
head 7.29316 4.46891 -4.07631
rclavicle 8.63222e-014 -1.59028e-014
rhumerus -36.3603 5.98927 -88.56
rradius 35.8708
rwrist -18.5427
rhand -17.3636 -0.32321
rfingers 7.12502
rthumb 8.88448 -30.1162
lclavicle 8.63222e-014 -1.59028e-014
lhumerus -34.6952 -2.69705 84.7314
lradius 28.4975
lwrist -2.161
lhand -18.5001 12.2096
lfingers 7.12502
lthumb 7.78765 42.0462
rfemur -10.2126 14.4896 22.5889
rtibia 32.285
rfoot -32.6005 -27.0415
rtoes -12.1912
lfemur -12.1827 -8.16053 -25.294
ltibia 35.3207
lfoot -24.8538 17.8203
ltoes -5.06823
369
root 45.9197 15.3261 1.60714 711.149 110.455 710.959
lowerback 3.1564 0.380717 -1.70557
upperback 5.154 0.682264 -0.860628
thorax 3.5289 0.366357 0.072862
lowerneck -9.18881 7.11767 11.8787
upperneck 15.4473 9.75124 -9.78337
head 7.30716 4.69017 -4.18292
rclavicle 1.20513e-014 -3.18055e-015
rhumerus -36.3854 5.63569 -88.4174
rradius 35.8379
rwrist -17.9181
rhand -16.9542 -0.862324
rfingers 7.12502
rthumb 9.27953 -30.6381
lclavicle 1.20513e-014 -3.18055e-015
lhumerus -34.3449 -2.45581 84.7153
lradius 28.68
lwrist -1.94596
lhand -18.4549 12.1065
lfingers 7.12502
lthumb 7.83128 41.9415
rfemur -9.79447 14.3975 23.2003
rtibia 31.9103
rfoot -33.1915 -27.9149
rtoes -10.2698
lfemur -12.3489 -6.59644 -24.936
ltibia 35.7288
lfoot -25.9912 18.7704
ltoes -4.28618
370
root 45.9299 15.3282 1.62442 712.639 111.824 712.465
lowerback 3.22849 0.566664 -1.2833
upperback 5.18811 0.932127 -0.719768
thorax 3.52334 0.504962 -0.0191101
lowerneck -9.20449 7.36397 11.8537
upperneck 15.3588 10.1064 -9.86484
head 7.32582 4.85239 -4.16271
rclavicle -3.24019e-014 1.10325e-014
rhumerus -36.3767 4.97387 -88.1043
rradius 35.9203
rwrist -17.6089
rhand -16.864 -1.45835
rfingers 7.12502
rthumb 9.36654 -31.2302
lclavicle -3.24019e-014 1.10325e-014
lhumerus -33.8911 -2.62358 84.9629
lradius 28.8933
lwrist -1.6852
lhand -18.4624 12.0675
lfingers 7.12502
lthumb 7.82407 41.9027
rfemur -9.54295 14.1571 23.7256
rtibia 31.5787
rfoot -33.8893 -28.6632
rtoes -8.29002
lfemur -12.5833 -4.89325 -24.5911
ltibia 36.081
lfoot -26.375 19.7623
ltoes -4.89201
371
root 45.9364 15.3245 1.63951 713.809 113.262 713.73
lowerback 3.41384 0.556018 -1.02911
upperback 5.15164 0.915905 -0.634107
thorax 3.38302 0.505754 -0.0758128
lowerneck -8.82364 7.77152 12.1116
upperneck 15.1417 10.6918 -10.0271
head 7.28079 5.14736 -4.1993
rclavicle 2.77305e-014 -5.66536e-015
rhumerus -36.4876 4.89341 -88.2223
rradius 35.9801
rwrist -17.6299
rhand -16.9844 -1.49699
rfingers 7.12502
rthumb 9.25036 -31.2741
lclavicle 2.77305e-014 -5.66536e-015
lhumerus -33.7377 -2.4904 84.9323
lradius 29.2168
lwrist -1.38856
lhand -18.5196 11.9681
lfingers 7.12502
lthumb 7.76889 41.8053
rfemur -9.26535 13.7796 24.2033
rtibia 31.3026
rfoot -34.6266 -29.3104
rtoes -6.62449
lfemur -12.6624 -3.18619 -24.2976
ltibia 36.416
lfoot -27.0015 20.4074
ltoes -4.26363
372
root 45.9428 15.318 1.6486 714.674 114.654 714.817
lowerback 3.65718 0.585849 -0.759995
upperback 5.1488 0.958453 -0.571375
thorax 3.24583 0.537788 -0.165355
lowerneck -8.31496 8.13733 12.3083
upperneck 14.8524 11.2303 -10.1402
head 7.18029 5.42525 -4.22066
rclavicle -7.85199e-015 -1.0138e-014
rhumerus -36.611 4.84476 -88.3705
rradius 36.0081
rwrist -17.7914
rhand -17.1776 -1.1319
rfingers 7.12502
rthumb 9.06395 -30.9172
lclavicle -7.85199e-015 -1.0138e-014
lhumerus -33.5878 -2.52983 84.9589
lradius 29.476
lwrist -1.15219
lhand -18.5913 11.7756
lfingers 7.12502
lthumb 7.69965 41.6155
rfemur -8.88566 13.2866 24.663
rtibia 31.0903
rfoot -35.3749 -29.8371
rtoes -5.551
lfemur -12.5812 -1.42248 -24.0123
ltibia 36.7397
lfoot -27.8873 20.8874
ltoes -2.36061
